<svg xmlns="http://www.w3.org/2000/svg" viewBox="0 0 64 64" width="64" height="64" role="img" aria-label="CardsGuru">
  <defs>
    <linearGradient id="cgBg" x1="0" y1="0" x2="1" y2="1">
      <stop offset="0" stop-color="#7cc4ff" />
      <stop offset="0.52" stop-color="#a98bff" />
      <stop offset="1" stop-color="#ff8fd0" />
    </linearGradient>
    <linearGradient id="cgCard" x1="0.2" y1="0" x2="0.7" y2="1">
      <stop offset="0" stop-color="#ffffff" />
      <stop offset="1" stop-color="#e8effc" />
    </linearGradient>
    <clipPath id="cgClip"><rect x="2" y="2" width="60" height="60" rx="16" /></clipPath>
  </defs>
  <rect x="2" y="2" width="60" height="60" rx="16" fill="url(#cgBg)" />
  <g clip-path="url(#cgClip)">
    <ellipse cx="16" cy="0" rx="44" ry="28" fill="#ffffff" opacity="0.18" />
    <ellipse cx="58" cy="64" rx="30" ry="24" fill="#2c0f43" opacity="0.16" />
  </g>
  <rect x="11" y="23" width="42" height="27" rx="5" fill="url(#cgCard)" />
  <rect x="11" y="28.4" width="42" height="5.6" fill="#232a3d" opacity="0.92" />
  <rect x="16" y="39.5" width="9" height="7" rx="2" fill="#f2d180" />
  <rect x="28" y="41.6" width="18" height="3" rx="1.5" fill="#a98bff" />
  <path d="M48.5 8.2 L49.9 13.6 L55.3 15 L49.9 16.4 L48.5 21.8 L47.1 16.4 L41.7 15 L47.1 13.6 Z" fill="#ffffff" />
</svg>
